<?xml version="1.0" standalone="no"?>
<!DOCTYPE svg PUBLIC "-//W3C//DTD SVG 20010904//EN" "http://www.w3.org/TR/2001/REC-SVG-20010904/DTD/svg10.dtd">
<svg version="1.0" xmlns="http://www.w3.org/2000/svg"
 width="174.000000pt" height="234.000000pt" viewBox="0 0 174.000000 234.000000"
 preserveAspectRatio="xMidYMid meet">
<metadata>
Created by potrace 1.15, written by Peter Selinger 2001-2017
</metadata>
<g transform="translate(0.000000,234.000000) scale(0.100000,-0.100000)"
   fill="#6f00ff" stroke="none">
<path d="M1148 2207 c-59 -68 -123 -168 -139 -214 -6 -19 -9 -66 -7 -103 3
-58 8 -75 34 -106 44 -54 87 -74 163 -74 83 0 142 27 179 83 23 34 27 51 27
112 0 61 -5 81 -33 137 -37 72 -148 218 -166 218 -7 0 -33 -24 -58 -53z"/>
<path d="M292 1782 c-88 -109 -175 -246 -203 -320 -41 -110 -16 -236 64 -320
76 -80 206 -111 322 -77 46 13 70 28 115 73 153 153 114 353 -123 638 -43 52
-84 94 -91 94 -7 0 -45 -39 -84 -88z"/>
<path d="M1088 1223 c-104 -108 -233 -270 -287 -361 -23 -37 -55 -106 -73
-153 -28 -74 -32 -96 -32 -184 0 -67 5 -119 17 -157 37 -122 160 -255 275
-298 222 -83 467 -17 598 161 79 108 112 273 80 399 -19 74 -80 208 -127 278
-84 123 -332 402 -358 402 -4 0 -46 -39 -93 -87z"/>
</g>
</svg>
